<svg width="25" height="25" viewBox="0 0 25 25" fill="none" xmlns="http://www.w3.org/2000/svg">
<path d="M23.1563 11.3114L23.0504 10.8619H13.2805V14.9969H19.1179C18.5119 17.8748 15.6996 19.3897 13.4024 19.3897C11.731 19.3897 9.96906 18.6866 8.8029 17.5565C8.18763 16.9508 7.69788 16.2296 7.36169 15.4343C7.0255 14.6391 6.84946 13.7853 6.84367 12.9219C6.84367 11.1801 7.62642 9.43793 8.7654 8.29192C9.90438 7.14591 11.6246 6.50471 13.3349 6.50471C15.2937 6.50471 16.6975 7.54479 17.2224 8.01913L20.1608 5.09623C19.2988 4.33878 16.9309 2.43018 13.2402 2.43018C10.3928 2.43018 7.66251 3.52087 5.66673 5.5101C3.69719 7.46886 2.67773 10.3013 2.67773 12.9294C2.67773 15.5575 3.64235 18.2484 5.55096 20.2226C7.59033 22.3281 10.4786 23.4286 13.4525 23.4286C16.1584 23.4286 18.7232 22.3684 20.5512 20.4448C22.3483 18.5511 23.2777 15.931 23.2777 13.1844C23.2777 12.028 23.1615 11.3414 23.1563 11.3114Z" fill="black"/>
</svg>
